<svg version="1.2" xmlns="http://www.w3.org/2000/svg" viewBox="0 0 814 610" width="814" height="610"><style>.a{fill:#fefefe}</style><path fill-rule="evenodd" class="a" d="m712.6 370.5c1.7-14-4.5-24.1-15.6-31.5-6.2-4.1-12.9-7.6-19.4-10.8-29.1-14.2-58.2-27.7-87.3-41.9-17.7-8.9-35.1-8.6-52.9 0.3-10.4 5.3-20.1 12-29.2 19.3q-45.2 36.9-90.6 73.8c-2.9 2.5-5.9 4.6-9 7.1-2.9-3-1.6-6-1.6-8.6-0.2-46.7 0-93.5-0.3-140.2 0-6.7 1.9-11 7.1-15.1 9.7-7.5 19-15.2 27.9-23.4 32.5-30.2 70.6-36.4 112.5-25.5 13.5 3.5 26.2 8.5 38.8 14.4 71.3 33.7 142.8 67.4 214.2 100.8 7.3 3.4 9.8 4.8 1.9 11.1-31.5 24.7-62.5 49.9-93.7 75-4 0-3.7-2.2-2.8-4.8z"/><path fill-rule="evenodd" class="a" d="m507.3 533.7c-5.3 4.2-10.7 8.5-16.3 12.7-25.8 20-51.6 39.8-77.4 59.8-4.3 3.2-7.5 5-13.2 2.2-44.6-21.3-89.5-42.5-134.5-63.2-5.2-2.5-7.3-5.8-8.1-11.2-1.6-10.4-2.7-20.9-6.7-32.5-4 5.8-6.9 10.3-10.1 14.7-5.8 8-13.6 10.5-22.5 6.4-47.5-22.2-96.2-42-141.9-67.5-52.2-29.2-73.9-77.9-75.7-135.5-1.9-59.1-0.4-118.3 1.6-177.5 0.6-14.6 3.8-28.8 10.7-41.9 9.3-17.9 24.6-26 44.6-23.9 12.5 1.1 24.4 5.1 35.6 10.3 38.5 18 76.9 36.1 115.5 54 13.1 6.1 22 16.3 29 28.6 3.8 6.6 6.9 13.6 11.6 20.3-1.9-62.8 9.9-126.2-8.9-189.2 4 1.7 7.3 2.9 10.3 4.4 45.8 21.5 91.6 43.1 137.7 64.1 8.2 3.8 11.1 8.1 11.1 17.4-1.6 136.1-2.6 272.2-4.1 408.3-0.1 8 1.6 12.8 9.6 15.9 10.7 3.9 20.6 9.4 31.1 13.8 17.7 7.5 35.9 10.8 55 8.5 5.1-0.6 10.4-0.7 15.3-0.9zm-258.2-278.3c-0.1-14.7-7.1-25.5-20.8-31.8-19-8.6-37.8-17.8-56.8-26.4-14.4-6.6-20.4-3.1-21.8 12.5-0.3 3.5-0.3 7.2-0.3 10.5 0 27.5-1.6 138.6-1.8 166.9-0.1 19.3 6.9 33.6 25.8 40.7 7.8 2.8 14.9 6.9 22.2 10.2 3.8 1.9 6.3 2.8 6.7-3.2 3.4-33.4 19.4-61 40.9-85.8 2.9-3 5.8-5.8 5.8-10.7-0.2-27.6 0.4-55.3 0.1-82.9z"/></svg>