<svg version="1.2" xmlns="http://www.w3.org/2000/svg" viewBox="0 0 572 436" width="572" height="436"><style>.a{fill:#fff}</style><path fill-rule="evenodd" class="a" d="m569.5 362.3q0 0.2 0 0.4-0.1 0.2-0.2 0.4-0.1 0.1-0.2 0.3-0.2 0.2-0.3 0.2-16.2 12-33.3 22.6-17.2 10.5-35.2 19.6-17.9 9.1-36.6 16.6-18.7 7.5-38 13.4-0.3 0.1-0.5 0.1-0.3 0-0.6-0.1-0.3-0.1-0.5-0.3-0.2-0.1-0.4-0.4-4.1-5.6-7.9-11.4-3.9-5.9-7.6-11.8-3.6-5.9-7-12-3.4-6.1-6.7-12.3-0.1-0.3-0.1-0.7-0.1-0.4 0-0.7 0.2-0.4 0.4-0.7 0.3-0.2 0.7-0.4 5.8-2.2 11.5-4.6 5.7-2.4 11.3-5.1 5.6-2.6 11-5.5 5.5-2.9 10.9-6 0.3-0.3 0.6-0.6 0.2-0.4 0.2-0.9 0.1-0.4-0.1-0.9-0.2-0.4-0.6-0.7c-3.1-2.2-6-4.6-8.9-7q-0.2-0.1-0.4-0.2-0.3-0.1-0.5-0.1-0.3-0.1-0.5 0-0.2 0.1-0.5 0.1c-92.5 42.8-193.8 42.8-287.4 0q-0.3 0-0.5-0.1-0.3 0-0.5 0-0.2 0.1-0.4 0.1-0.3 0.1-0.5 0.3c-2.8 2.4-5.8 4.7-8.8 6.9q-0.4 0.3-0.6 0.7-0.1 0.5-0.1 0.9 0 0.5 0.2 0.9 0.2 0.3 0.7 0.6 5.3 3.1 10.8 6 5.5 2.8 11 5.5 5.6 2.7 11.3 5.1 5.7 2.4 11.5 4.6 0.3 0.2 0.6 0.5 0.3 0.2 0.4 0.6 0.2 0.3 0.2 0.7 0 0.4-0.2 0.7-3.2 6.3-6.6 12.4-3.4 6-7 12-3.7 6-7.6 11.7-3.9 5.9-8.1 11.5-0.1 0.2-0.4 0.3-0.2 0.2-0.5 0.3-0.2 0.1-0.5 0.1-0.3 0-0.6-0.1-19.2-5.9-37.8-13.4-18.7-7.5-36.6-16.6-18-9.1-35.1-19.6-17.1-10.6-33.2-22.6-0.3 0-0.3-0.3-0.2-0.1-0.3-0.2-0.1-0.2-0.1-0.4-0.1-0.2-0.1-0.4c-10-106.7 10.3-214.7 84.5-325.4q0-0.1 0.1-0.2 0.1-0.1 0.2-0.2 0.1-0.1 0.2-0.1 0.2-0.1 0.2-0.2 13.9-6.4 28.2-11.8 14.3-5.5 28.9-10 14.6-4.6 29.5-8.1 14.8-3.5 29.9-6.2 0.3 0 0.6 0 0.2 0.1 0.4 0.2 0.3 0.1 0.5 0.3 0.2 0.2 0.4 0.4 2 3.6 3.9 7.3 2 3.7 3.8 7.4 1.8 3.7 3.6 7.5 1.7 3.8 3.4 7.6 16.2-2.5 32.5-3.7 16.4-1.2 32.9-1.2 16.4 0 32.7 1.2 16.4 1.2 32.7 3.7 1.6-3.8 3.3-7.6 1.7-3.8 3.5-7.5 1.8-3.7 3.7-7.4 2-3.7 3.9-7.3 0.1-0.3 0.3-0.4 0.2-0.2 0.5-0.3 0.2-0.1 0.5-0.2 0.3 0 0.6 0 15 2.7 29.9 6.2 14.9 3.6 29.5 8.1 14.6 4.5 28.9 10 14.3 5.4 28.1 11.8 0.1 0.1 0.2 0.2 0.2 0 0.3 0.1 0 0.1 0.1 0.2 0.1 0.1 0.1 0.2c64.7 95 96.6 202.1 84.6 325.4zm-326.9-122.6c0-31.8-23-57.6-51.4-57.6-28.5 0-51.4 25.8-51.4 57.6 0 31.9 22.9 57.6 51.4 57.6 28.4 0 51.4-25.7 51.4-57.6zm190 0c0-31.8-23-57.6-51.4-57.6-28.4 0-51.4 25.8-51.4 57.6 0 31.9 23 57.6 51.4 57.6 28.4 0 51.4-25.7 51.4-57.6z"/></svg>