<svg version="1.2" xmlns="http://www.w3.org/2000/svg" viewBox="0 0 24 24" width="64" height="64">
	<style>
		.s0 { fill: #ffffff } 
	</style>
	<path id="Layer" class="s0" d="m6.8 8c-0.5 0-0.8 0.3-0.8 0.8 0 0.4 0.3 0.7 0.8 0.7h4.5c0.4 0 0.7-0.3 0.7-0.8 0-0.4-0.3-0.7-0.7-0.7z"/>
	<path id="Layer" class="s0" d="m6 11.8c0-0.5 0.3-0.8 0.8-0.8h8.4c0.5 0 0.8 0.3 0.8 0.7 0 0.5-0.3 0.8-0.8 0.8h-8.5c-0.4 0-0.7-0.3-0.7-0.8z"/>
	<path id="Layer" class="s0" d="m6.8 14c-0.5 0-0.8 0.3-0.8 0.8 0 0.4 0.3 0.7 0.8 0.7h6.5c0.4 0 0.7-0.3 0.7-0.8 0-0.4-0.3-0.7-0.7-0.7z"/>
	<path id="Layer" fill-rule="evenodd" class="s0" d="m19.3 4c1.5 0 2.7 1.2 2.7 2.8v10.4c0 1.6-1.2 2.8-2.8 2.8h-14.5c-1.5 0-2.7-1.2-2.7-2.8v-10.4c0-1.6 1.2-2.8 2.7-2.8zm-15.7 13.3c0 0.6 0.6 1.2 1.2 1.2h14.5c0.7 0 1.3-0.6 1.3-1.3v-10.5c0-0.6-0.6-1.2-1.3-1.2h-14.5c-0.6 0-1.2 0.6-1.2 1.2z"/>
</svg>